:SAMPLES-PER-SECOND 30
:FULLY-SPECIFIED
:DEGREES
768
root  -19.7357 32.4769 41.9326 -69.5197 -0.989078 83.6265
Spine  -3.7684 -5.37582 -13.9706
Spine1  -3.84766 11.2659 -4.04974
Neck  3.97569e-016 0 -2.38542e-015
Head  -7.66492 -3.31349 14.2275
R_Clavicle  0.420917 -20.3432 2.05499
R_UpperArm  42.8461 -11.1957 41.7548
R_Forearm  2.11647 -41.0241 29.0716
R_Hand  -0.468723 8.86014 -15.133
L_Clavicle  -0.473117 17.536 1.71201
L_UpperArm  10.8444 -2.69318 2.00319
L_Forearm  -15.7216 29.4325 35.5312
L_Hand  0.0998995 4.50737 1.29858
L_Thigh  -10.9316 4.12784 -28.2561
L_Calf  5.7655 -4.21142 31.0749
L_Foot  1.63761 0.353058 7.44424
L_Toe0  0.712661 0.0340436 -5.98646
R_Thigh  2.66043 -6.02534 5.04308
R_Calf  3.60295 12.6093 43.0827
R_Foot  1.51423 -9.56214 -21.8692
R_Toe0  -1.78853 -0.26856 -17.3236
769
root  -19.65 32.3408 40.7584 -70.0293 -2.28778 84.1517
Spine  -4.16429 -2.88427 -12.7636
Spine1  -4.35407 11.2705 -4.4467
Neck  3.97569e-016 0 -2.38542e-015
Head  -5.78813 -4.28816 13.818
R_Clavicle  0.41599 -20.3084 1.77515
R_UpperArm  41.8796 -11.5521 42.721
R_Forearm  -0.160916 -41.8542 29.5657
R_Hand  -0.138777 9.45496 -13.0317
L_Clavicle  -0.475872 17.4941 1.49637
L_UpperArm  13.7794 -0.505258 0.170975
L_Forearm  -17.557 25.8363 33.9275
L_Hand  0.0204306 4.02308 0.391775
L_Thigh  -9.92498 6.35017 -28.196
L_Calf  5.99864 -3.3864 25.4858
L_Foot  0.188907 -3.33805 5.77601
L_Toe0  2.46466 -0.0750008 -4.32375
R_Thigh  -0.494034 -3.47185 4.77011
R_Calf  1.92452 11.1408 37.7426
R_Foot  1.69884 -7.97152 -22.0066
R_Toe0  -1.80892 -0.270711 -17.3352
770
root  -19.5443 32.258 39.594 -70.1769 -3.11256 84.4723
Spine  -4.99049 -1.36859 -12.0997
Spine1  -5.23324 11.7376 -4.63511
Neck  3.97569e-016 0 -2.38542e-015
Head  -3.34282 -5.10291 14.0358
R_Clavicle  0.404045 -19.9064 1.2875
R_UpperArm  40.8771 -12.7352 43.3651
R_Forearm  -1.85041 -41.7169 29.0056
R_Hand  0.229952 9.67741 -10.6009
L_Clavicle  -0.463903 16.5596 0.973183
L_UpperArm  11.2737 2.49081 -0.700903
L_Forearm  -15.6366 23.7741 30.6125
L_Hand  -0.0117806 4.12206 0.0138148
L_Thigh  -7.78964 7.99474 -25.8075
L_Calf  4.74549 -2.31808 16.8631
L_Foot  -1.09239 -4.5289 0.415166
L_Toe0  2.81166 -0.174002 -0.661483
R_Thigh  -0.871672 -1.946 4.13583
R_Calf  1.93536 10.0487 33.3018
R_Foot  1.44542 -5.73785 -19.135
R_Toe0  -1.63457 -0.271018 -17.236
771
root  -19.4461 32.1532 38.4956 -69.6084 -3.82929 84.6633
Spine  -6.16361 -0.585648 -11.3563
Spine1  -6.42887 12.792 -4.94412
Neck  3.97569e-016 0 -2.38542e-015
Head  -1.01904 -5.46348 14.3577
R_Clavicle  0.394409 -19.3632 1.09294
R_UpperArm  39.7583 -13.9962 43.8243
R_Forearm  -2.05268 -41.0297 27.6833
R_Hand  0.4422 9.12536 -8.73161
L_Clavicle  -0.444511 15.6789 0.581176
L_UpperArm  11.1004 4.63776 -1.9242
L_Forearm  -13.8508 21.7106 27.3687
L_Hand  -0.0332428 4.82739 -0.190684
L_Thigh  -4.25974 8.80538 -21.153
L_Calf  1.82934 -0.849761 5.85236
L_Foot  -1.84992 -0.672397 -8.55377
L_Toe0  -4.7631 0.554666 1.50133
R_Thigh  0.171295 -0.998896 3.22951
R_Calf  2.16069 8.977 29.358
R_Foot  0.972319 -4.99343 -15.4636
R_Toe0  -0.660929 -0.266794 -16.6826
772
root  -19.3322 31.9198 37.4589 -68.7621 -5.0548 85.057
Spine  -7.15645 0.00713953 -10.0359
Spine1  -7.43908 14.508 -5.24822
Neck  3.97569e-016 0 -2.38542e-015
Head  0.589664 -5.20346 14.2629
R_Clavicle  0.396489 -19.0514 1.26437
R_UpperArm  38.3073 -14.4219 44.4659
R_Forearm  -0.366271 -39.907 25.8852
R_Hand  0.466523 8.07266 -7.68242
L_Clavicle  -0.441865 15.5767 0.477897
L_UpperArm  14.247 4.85129 -4.5952
L_Forearm  -11.2391 19.9287 24.7442
L_Hand  -0.0788851 5.30889 -0.607057
L_Thigh  -0.0992277 9.1327 -15.7121
L_Calf  -0.923899 0.636098 -5.03544
L_Foot  -2.48795 4.50725 -15.4227
L_Toe0  -7.41335 0.728944 -1.97266
R_Thigh  0.913656 0.495702 2.32918
R_Calf  2.32914 7.65325 24.7348
R_Foot  0.300769 -5.05227 -11.1162
R_Toe0  0.134734 -0.276571 -16.2302
773
root  -19.1727 31.6247 36.3957 -68.1418 -6.70964 85.0758
Spine  -7.64976 -0.550081 -8.31836
Spine1  -7.95041 17.0039 -5.03245
Neck  3.97569e-016 0 -2.38542e-015
Head  1.64552 -4.44385 13.4464
R_Clavicle  0.403127 -19.2542 1.44423
R_UpperArm  36.1566 -13.4851 45.2587
R_Forearm  3.08729 -38.3036 24.1526
R_Hand  0.372105 7.29213 -7.7111
L_Clavicle  -0.451977 15.9856 0.431227
L_UpperArm  18.7267 3.50535 -8.46599
L_Forearm  -6.96538 18.3036 22.448
L_Hand  -0.114528 5.08683 -1.01563
L_Thigh  3.45017 8.8212 -10.8844
L_Calf  -1.91002 1.76323 -13.3607
L_Foot  -2.00861 7.19124 -14.6394
L_Toe0  -0.109376 -0.011038 -5.78713
R_Thigh  0.911659 2.24039 0.949181
R_Calf  3.22389 6.30112 20.1783
R_Foot  -0.260828 -4.53708 -6.75483
R_Toe0  0.114527 -0.276679 -16.2413
774
root  -18.9727 31.3306 35.3099 -67.68 -8.35814 84.3387
Spine  -7.94793 -2.81917 -6.52042
Spine1  -8.13309 20.1935 -4.19831
Neck  3.97569e-016 0 -2.38542e-015
Head  1.6859 -3.41851 12.2578
R_Clavicle  0.405842 -19.7265 1.42944
R_UpperArm  34.8616 -11.3329 45.4306
R_Forearm  5.86785 -37.4215 23.3851
R_Hand  0.169659 7.24268 -9.30655
L_Clavicle  -0.456432 16.1445 0.166952
L_UpperArm  21.8746 1.80531 -12.2627
L_Forearm  -2.05763 16.7455 20.3208
L_Hand  -0.113935 4.6541 -1.10384
L_Thigh  6.05431 7.67134 -6.5749
L_Calf  -1.02894 2.3489 -17.7663
L_Foot  -0.493601 7.07025 -8.542
L_Toe0  0.606489 0.0334235 -6.19415
R_Thigh  0.680054 3.55332 -0.948846
R_Calf  4.80863 5.08226 16.1566
R_Foot  -0.720546 -3.84513 -2.59992
R_Toe0  0.0813187 -0.274956 -16.26
775
root  -18.7566 30.9825 34.2916 -67.4675 -9.88695 83.4012
Spine  -8.31994 -5.55222 -4.74748
Spine1  -8.22131 23.3098 -3.29142
Neck  3.97569e-016 0 -2.38542e-015
Head  1.96897 -2.68963 11.2544
R_Clavicle  0.405271 -19.843 1.36693
R_UpperArm  36.5473 -8.61168 44.0792
R_Forearm  4.94732 -38.9747 24.3582
R_Hand  -0.162647 7.71792 -12.2853
L_Clavicle  -0.442252 15.6745 -0.281179
L_UpperArm  22.8581 0.56879 -15.1009
L_Forearm  0.493313 15.7592 19.007
L_Hand  -0.117134 4.59273 -1.15221
L_Thigh  7.47116 6.17856 -2.24762
L_Calf  0.00536716 2.38696 -18.0445
L_Foot  0.55957 5.66742 -3.35973
L_Toe0  0.505156 0.034446 -6.1361
R_Thigh  0.718592 4.69994 -2.65212
R_Calf  6.31891 3.82365 12.1144
R_Foot  -1.41311 -4.0305 1.61887
R_Toe0  0.0539618 -0.275651 -16.2748
776
root  -18.5195 30.6314 33.3694 -68.2214 -11.2724 82.724
Spine  -8.50838 -7.56246 -3.31509
Spine1  -8.15228 25.2251 -2.6192
Neck  3.97569e-016 0 -2.38542e-015
Head  2.93023 -2.56089 10.744
R_Clavicle  0.403051 -19.4149 1.40161
R_UpperArm  39.4149 -5.83415 41.1464
R_Forearm  1.36059 -42.2122 27.5461
R_Hand  -0.529703 8.43632 -15.4366
L_Clavicle  -0.411328 14.8428 -0.715565
L_UpperArm  22.7165 -0.253212 -16.9733
L_Forearm  -1.03864 15.9476 19.2562
L_Hand  -0.146945 4.95481 -1.42518
L_Thigh  6.90406 4.99574 1.79385
L_Calf  -0.445425 1.90566 -14.3752
L_Foot  1.06658 5.55733 -1.20995
L_Toe0  0.505156 0.034446 -6.1361
R_Thigh  0.83124 6.00321 -4.00083
R_Calf  7.24556 2.687 8.52182
R_Foot  -2.33462 -5.08043 5.30012
R_Toe0  0.21907 -0.279402 -16.1797
777
root  -18.2677 30.3404 32.5605 -70.2889 -12.3455 82.2787
Spine  -8.32797 -8.74162 -2.73284
Spine1  -7.73424 25.456 -1.72035
Neck  3.97569e-016 0 -2.38542e-015
Head  4.3652 -2.75086 10.3077
R_Clavicle  0.4012 -18.9509 1.44659
R_UpperArm  41.1576 -3.07062 37.5282
R_Forearm  -1.61328 -44.8935 31.5749
R_Hand  -0.810883 9.30521 -17.728
L_Clavicle  -0.381995 14.1524 -1.00002
L_UpperArm  22.3729 -1.09866 -17.9701
L_Forearm  -4.44976 17.3543 21.144
L_Hand  -0.170174 5.49047 -1.5751
L_Thigh  4.47508 4.41942 4.85678
L_Calf  -0.759005 0.883587 -6.75734
L_Foot  1.34044 5.59697 -0.137267
L_Toe0  0.505156 0.034446 -6.1361
R_Thigh  0.68373 7.1745 -5.09251
R_Calf  7.42106 1.84388 5.85855
R_Foot  -3.17209 -6.05916 8.16977
R_Toe0  0.468509 -0.286072 -16.0367
778
root  -18.0504 30.147 31.87 -73.3204 -13.0099 81.9762
Spine  -7.95243 -9.34129 -3.17139
Spine1  -7.03889 24.4052 -0.230666
Neck  3.97569e-016 0 -2.38542e-015
Head  6.2458 -2.88235 9.51081
R_Clavicle  0.398257 -18.8116 1.38281
R_UpperArm  42.367 -0.444678 34.1016
R_Forearm  -2.27387 -45.904 33.5103
R_Hand  -1.0081 9.99459 -19.2049
L_Clavicle  -0.375651 14.0209 -1.08016
L_UpperArm  21.6057 -2.05808 -17.7274
L_Forearm  -6.0325 19.5492 24.2006
L_Hand  -0.136955 5.61831 -1.21885
L_Thigh  1.56984 4.11391 6.61136
L_Calf  0.916182 -0.603965 4.17229
L_Foot  0.775973 4.16502 -1.09006
L_Toe0  0.505156 0.034446 -6.1361
R_Thigh  0.328665 7.8672 -6.04042
R_Calf  6.66768 1.31084 4.17058
R_Foot  -3.86017 -6.79727 10.3997
R_Toe0  0.689154 -0.293128 -15.9109
779
root  -17.8898 30.1257 31.2706 -77.0591 -13.3612 81.7168
Spine  -7.5294 -9.6496 -4.3214
Spine1  -6.30954 22.6096 1.48829
Neck  3.97569e-016 0 -2.38542e-015
Head  8.61063 -2.74195 8.49149
R_Clavicle  0.393618 -18.7097 1.26237
R_UpperArm  42.2335 1.59176 30.9543
R_Forearm  0.537019 -44.8975 31.7944
R_Hand  -1.14574 10.0973 -20.1507
L_Clavicle  -0.398998 14.5987 -1.01232
L_UpperArm  19.903 -2.81713 -15.7771
L_Forearm  -5.24158 22.135 28.0796
L_Hand  -0.0812538 4.98909 -0.708196
L_Thigh  -0.522984 3.51697 7.15791
L_Calf  2.93965 -2.18597 16.0603
L_Foot  -0.549978 3.17335 -5.84014
L_Toe0  0.505156 0.034446 -6.1361
R_Thigh  -0.327521 8.06539 -7.04471
R_Calf  5.04883 1.13015 3.58324
R_Foot  -4.6042 -7.97918 11.838
R_Toe0  1.00831 -0.305219 -15.7293
780
root  -17.7697 30.3016 30.7353 -81.5713 -13.5673 81.4394
Spine  -6.99033 -9.80573 -5.77096
Spine1  -5.61671 20.2615 2.90937
Neck  3.97569e-016 0 -2.38542e-015
Head  11.2026 -2.37939 7.74127
R_Clavicle  0.390605 -18.3636 1.25766
R_UpperArm  40.391 2.83852 27.7213
R_Forearm  4.85667 -42.3049 27.4554
R_Hand  -1.18595 9.81242 -20.4164
L_Clavicle  -0.438333 15.6264 -0.971768
L_UpperArm  17.0946 -3.1596 -12.0542
L_Forearm  -4.77552 25.1295 32.4365
L_Hand  -0.0539177 4.00172 -0.489424
L_Thigh  -1.28988 2.55857 7.02452
L_Calf  3.69091 -3.37242 25.4991
L_Foot  -1.624 3.94781 -11.2024
L_Toe0  0.505156 0.034446 -6.1361
R_Thigh  -1.79603 8.03019 -8.21812
R_Calf  3.13847 1.30597 4.1
R_Foot  -5.34368 -9.63708 12.2052
R_Toe0  1.50189 -0.327932 -15.4488
781
root  -17.6896 30.6423 30.2224 -86.6235 -13.6655 81.2631
Spine  -6.2944 -9.61944 -7.34191
Spine1  -4.97922 17.489 3.81877
Neck  3.97569e-016 0 -2.38542e-015
Head  13.7305 -1.99002 7.46796
R_Clavicle  0.396157 -17.952 1.48318
R_UpperArm  34.4785 3.56649 24.2499
R_Forearm  10.3101 -38.0642 22.9156
R_Hand  -1.14278 9.64426 -20.1083
L_Clavicle  -0.476028 16.6038 -1.06451
L_UpperArm  9.54804 -3.09848 -6.94449
L_Forearm  -3.05581 30.101 35.8894
L_Hand  -0.0334309 3.42153 -0.286382
L_Thigh  -1.39273 1.59406 6.78239
L_Calf  3.81922 -4.07237 30.4209
L_Foot  -1.92122 4.5389 -12.8695
L_Toe0  0.505156 0.034446 -6.1361
R_Thigh  -4.32512 8.00303 -9.61484
R_Calf  1.43853 1.80317 5.61828
R_Foot  -5.77148 -11.1138 11.4961
R_Toe0  2.10878 -0.362735 -15.1051
